<?xml version="1.0" encoding="utf-8"?>
<!-- Generator: Adobe Illustrator 18.1.1, SVG Export Plug-In . SVG Version: 6.00 Build 0)  -->
<!DOCTYPE svg PUBLIC "-//W3C//DTD SVG 1.1//EN" "http://www.w3.org/Graphics/SVG/1.1/DTD/svg11.dtd">
<svg version="1.1" xmlns="http://www.w3.org/2000/svg" xmlns:xlink="http://www.w3.org/1999/xlink" x="0px" y="0px"
	 viewBox="-207 -31.2 863.2 863.2" enable-background="new -207 -31.2 863.2 863.2" xml:space="preserve">
<g id="Capa_1" display="none">
	<g display="inline">
		<g>
			<path d="M656.2-16.5l-170-0.1c0,70.4-13.8,139.4-40.9,205.2c-40.5,98.6-108.4,182.1-196.3,241.6c-40.2,27.2-83.5,48.7-128.8,64.1
				V358.9l-327.2,229.4l327.2,229.4V671.5c79.4-20.1,155.2-54,224-100.5c115.7-78.2,205-188,258.4-317.6
				C638,167,656.2,76.2,656.2-16.5z"/>
		</g>
	</g>
</g>
<g id="Layer_2">
	<g>
		<path d="M36.5,534.3c-15.6-15.6-40.4-16.6-56-1l-54.3,54.3c-15.2,15.2-15.2,39.9,0,55.1l2.7,2.7c15.2,15.2,39.9,15.2,55.1,0
			l54.3-54.3c15.7-15.7,14.6-40.6-1.2-56.2C36.9,534.7,36.7,534.5,36.5,534.3z"/>
		<path d="M-40,348.4v-3.8c0-21.5-18.6-32.6-40.1-32.6h-78.2c-22.1,0-45.7,12.1-45.7,34.2c0,0.3,0,0.5,0,0.8c0,22.1,23.6,40,45.7,40
			h78.2C-58.6,387-40,369.9-40,348.4z"/>
		<path d="M-19.5,159.7c15.6,15.6,40.4,14.6,56-1c0.2-0.2,0.4-0.4,0.6-0.6c15.7-15.6,16.8-40.5,1.2-56.2L-16,47.6
			c-15.2-15.2-39.9-15.2-55.1,0l-2.7,2.7c-15.2,15.2-15.2,39.9,0,55.1L-19.5,159.7z"/>
		<path d="M412.4,159.6c15.6,15.7,40.5,16.8,56.2,1.2l55.3-55.3c15.2-15.2,15.2-39.9,0-55.1l-2.7-2.7c-15.2-15.2-39.9-15.2-55.1,0
			L410.8,103c-15.6,15.6-14.6,40.4,1,56C412,159.2,412.2,159.4,412.4,159.6z"/>
		<path d="M290.8,127l0.2,185h15.8h0.2c14.4,0,21.6,17.4,11.4,27.6l-81.6,81.7c-6.3,6.3-16.6,6.3-22.9,0l-81.6-81.7
			c-10.2-10.2-3-27.6,11.4-27.6l16.1,0l0-183.4C64.9,157.8-4.3,246.4-4.3,350.9c0,128.3,104.4,232.7,232.7,232.7
			s232.7-104.4,232.7-232.7C461.1,244.2,388.9,154.3,290.8,127z"/>
		<path d="M609,312h-78.2c-22.1,0-41.8,12.1-41.8,34.2c0,0.3,0,0.5,0,0.8c0,22.1,19.7,40,41.8,40H609c21.5,0,44-17.1,44-38.6v-3.8
			C653,323.1,630.6,312,609,312z"/>
		<path d="M227,611h-3.8c-21.5,0-34.2,19.1-34.2,40.6v76.8c0,22.1,13.5,36.6,35.6,36.6c0.3,0,0.5,0,0.8,0
			c22.1,0,39.6-14.5,39.6-36.6v-76.8C265,630.1,248.5,611,227,611z"/>
		<path d="M468.6,532.3c-15.7-15.7-40.6-14.6-56.2,1.2c-0.2,0.2-0.4,0.4-0.6,0.6c-15.6,15.6-16.6,40.4-1,56l55.3,55.3
			c15.2,15.2,39.9,15.2,55.1,0l2.7-2.7c15.2-15.2,15.2-39.9,0-55.1L468.6,532.3z"/>
	</g>
</g>
</svg>
